<svg width="82" height="82" viewBox="0 0 82 82" fill="none" xmlns="http://www.w3.org/2000/svg">
<g filter="url(#filter0_d_1735_6447)">
<rect x="20" y="14" width="42" height="42" rx="21" fill="url(#paint0_linear_1735_6447)" shape-rendering="crispEdges"/>
<g clip-path="url(#clip0_1735_6447)">
<path fill-rule="evenodd" clip-rule="evenodd" d="M41.5303 28.4697C41.8232 28.7626 41.8232 29.2374 41.5303 29.5303L36.8107 34.25H47.5C47.9142 34.25 48.25 34.5858 48.25 35C48.25 35.4142 47.9142 35.75 47.5 35.75H36.8107L41.5303 40.4697C41.8232 40.7626 41.8232 41.2374 41.5303 41.5303C41.2374 41.8232 40.7626 41.8232 40.4697 41.5303L34.4697 35.5303C34.1768 35.2374 34.1768 34.7626 34.4697 34.4697L40.4697 28.4697C40.7626 28.1768 41.2374 28.1768 41.5303 28.4697Z" fill="white"/>
</g>
</g>
<defs>
<filter id="filter0_d_1735_6447" x="0" y="0" width="82" height="82" filterUnits="userSpaceOnUse" color-interpolation-filters="sRGB">
<feFlood flood-opacity="0" result="BackgroundImageFix"/>
<feColorMatrix in="SourceAlpha" type="matrix" values="0 0 0 0 0 0 0 0 0 0 0 0 0 0 0 0 0 0 127 0" result="hardAlpha"/>
<feOffset dy="6"/>
<feGaussianBlur stdDeviation="10"/>
<feComposite in2="hardAlpha" operator="out"/>
<feColorMatrix type="matrix" values="0 0 0 0 0.0196078 0 0 0 0 0.215686 0 0 0 0 0.611765 0 0 0 0.25 0"/>
<feBlend mode="normal" in2="BackgroundImageFix" result="effect1_dropShadow_1735_6447"/>
<feBlend mode="normal" in="SourceGraphic" in2="effect1_dropShadow_1735_6447" result="shape"/>
</filter>
<linearGradient id="paint0_linear_1735_6447" x1="41.2734" y1="2.12767" x2="61.5719" y2="61.1184" gradientUnits="userSpaceOnUse">
<stop stop-color="#01F2CF"/>
<stop offset="0.0001" stop-color="#99ACFF"/>
<stop offset="1" stop-color="#4E6EFC"/>
</linearGradient>
<clipPath id="clip0_1735_6447">
<rect width="24" height="24" fill="white" transform="translate(29 23)"/>
</clipPath>
</defs>
</svg>
