<svg width="82" height="82" viewBox="0 0 82 82" fill="none" xmlns="http://www.w3.org/2000/svg">
<g filter="url(#filter0_d_1735_6984)">
<rect x="20" y="14" width="42" height="42" rx="21" fill="url(#paint0_linear_1735_6984)" shape-rendering="crispEdges"/>
<g clip-path="url(#clip0_1735_6984)">
<path fill-rule="evenodd" clip-rule="evenodd" d="M31.25 28C31.25 27.5858 31.5858 27.25 32 27.25H40C40.4142 27.25 40.75 27.5858 40.75 28C40.75 28.4142 40.4142 28.75 40 28.75H32C31.5858 28.75 31.25 28.4142 31.25 28ZM31.25 35C31.25 34.5858 31.5858 34.25 32 34.25H45C45.4142 34.25 45.75 34.5858 45.75 35C45.75 35.4142 45.4142 35.75 45 35.75H32C31.5858 35.75 31.25 35.4142 31.25 35ZM32 41.25C31.5858 41.25 31.25 41.5858 31.25 42C31.25 42.4142 31.5858 42.75 32 42.75H50C50.4142 42.75 50.75 42.4142 50.75 42C50.75 41.5858 50.4142 41.25 50 41.25H32Z" fill="white"/>
</g>
</g>
<defs>
<filter id="filter0_d_1735_6984" x="0" y="0" width="82" height="82" filterUnits="userSpaceOnUse" color-interpolation-filters="sRGB">
<feFlood flood-opacity="0" result="BackgroundImageFix"/>
<feColorMatrix in="SourceAlpha" type="matrix" values="0 0 0 0 0 0 0 0 0 0 0 0 0 0 0 0 0 0 127 0" result="hardAlpha"/>
<feOffset dy="6"/>
<feGaussianBlur stdDeviation="10"/>
<feComposite in2="hardAlpha" operator="out"/>
<feColorMatrix type="matrix" values="0 0 0 0 0.0196078 0 0 0 0 0.215686 0 0 0 0 0.611765 0 0 0 0.25 0"/>
<feBlend mode="normal" in2="BackgroundImageFix" result="effect1_dropShadow_1735_6984"/>
<feBlend mode="normal" in="SourceGraphic" in2="effect1_dropShadow_1735_6984" result="shape"/>
</filter>
<linearGradient id="paint0_linear_1735_6984" x1="41.2734" y1="2.12767" x2="61.5719" y2="61.1184" gradientUnits="userSpaceOnUse">
<stop stop-color="#01F2CF"/>
<stop offset="0.0001" stop-color="#99ACFF"/>
<stop offset="1" stop-color="#4E6EFC"/>
</linearGradient>
<clipPath id="clip0_1735_6984">
<rect width="24" height="24" fill="white" transform="translate(29 23)"/>
</clipPath>
</defs>
</svg>
