<svg width="80" height="40" viewBox="0 0 80 40" fill="none" xmlns="http://www.w3.org/2000/svg">
<g clip-path="url(#clip0_1735_6025)">
<path fill-rule="evenodd" clip-rule="evenodd" d="M0 0H9.9813V40C4.46878 40 0 35.5294 0 30.0145V0Z" fill="#4E59FF"/>
<path d="M19.9627 30.0145H9.98145V40H19.9627V30.0145Z" fill="#4E59FF"/>
<path d="M19.9627 10.2957H9.98145V20.2811H19.9627V10.2957Z" fill="#4E59FF"/>
<path fill-rule="evenodd" clip-rule="evenodd" d="M59.8831 0H69.8643V40C64.3518 40 59.8831 35.5294 59.8831 30.0145V0Z" fill="#4E59FF"/>
<path d="M79.8456 30.0145H69.8643V40H79.8456V30.0145Z" fill="#4E59FF"/>
<path d="M79.8456 10.2957H69.8643V20.2811H79.8456V10.2957Z" fill="#4E59FF"/>
<path fill-rule="evenodd" clip-rule="evenodd" d="M24.9534 0H34.9347V40C29.4222 40 24.9534 35.5294 24.9534 30.0145V0Z" fill="#4E59FF"/>
<path d="M44.911 20H34.9297V29.9855H44.911V20Z" fill="#4E59FF"/>
<path d="M54.8924 29.9855H44.9111V39.9709H54.8924V29.9855Z" fill="#4E59FF"/>
<path d="M54.8924 10.0145H44.9111V20H54.8924V10.0145Z" fill="#4E59FF"/>
</g>
<defs>
<clipPath id="clip0_1735_6025">
<rect width="79.759" height="40" fill="white"/>
</clipPath>
</defs>
</svg>
